<svg data-v-423bf9ae="" xmlns="http://www.w3.org/2000/svg" viewBox="0 0 480 90" class="iconLeft"><!----><!----><!----><g data-v-423bf9ae="" id="6c2378d5-ee88-40de-bd08-0be2e1de5c62" fill="#000000" transform="matrix(5.194805537949965,0,0,5.194805537949965,146.00098545752653,6.272728018383425)"><path d="M-0.21 6.16L3.43 13.23L5.67 9.58L7.91 13.23L11.55 6.16L8.75 6.16L7.73 8.75L5.67 5.81L3.61 8.75L2.59 6.16ZM16.48 8.41L14.59 8.41C14.72 7.84 15.05 7.56 15.58 7.56C16.09 7.56 16.38 7.84 16.48 8.41ZM14.55 9.94L19.36 9.94C19.38 9.76 19.39 9.53 19.39 9.25C19.39 8.23 19.06 7.42 18.40 6.83C17.75 6.24 16.83 5.95 15.65 5.95C14.46 5.95 13.51 6.27 12.81 6.92C12.11 7.56 11.76 8.38 11.76 9.38C11.76 10.39 12.09 11.20 12.76 11.82C13.43 12.43 14.39 12.74 15.65 12.74C16.62 12.74 17.43 12.56 18.09 12.21C18.74 11.85 19.19 11.34 19.45 10.68L16.97 10.29C16.90 10.54 16.76 10.71 16.55 10.79C16.33 10.88 16.03 10.92 15.65 10.92C15.03 10.92 14.66 10.59 14.55 9.94ZM28.48 9.38C28.48 8.28 28.18 7.44 27.59 6.87C27.01 6.30 26.31 6.02 25.49 6.02C24.50 6.02 23.76 6.41 23.30 7.20L23.30 1.68L20.57 1.68L20.57 12.60L23.30 12.60L23.30 11.56C23.76 12.35 24.50 12.74 25.49 12.74C26.31 12.74 27.01 12.46 27.59 11.89C28.18 11.32 28.48 10.48 28.48 9.38ZM25.59 9.38C25.59 9.73 25.48 10.00 25.26 10.20C25.04 10.40 24.77 10.50 24.44 10.50C24.14 10.50 23.87 10.40 23.64 10.21C23.41 10.02 23.30 9.74 23.30 9.38C23.30 9.02 23.41 8.74 23.64 8.55C23.87 8.36 24.14 8.26 24.44 8.26C24.77 8.26 25.04 8.36 25.26 8.56C25.48 8.76 25.59 9.03 25.59 9.38ZM29.60 1.68L29.60 12.60L32.33 12.60L32.33 1.68ZM38.07 10.08C38.07 10.70 37.80 11.00 37.27 11.00C37.01 11.00 36.83 10.93 36.74 10.78C36.64 10.63 36.60 10.40 36.60 10.08L36.60 6.16L33.73 6.16L33.73 10.50C33.73 11.23 33.91 11.79 34.27 12.17C34.64 12.56 35.24 12.75 36.08 12.75C37.00 12.75 37.66 12.38 38.07 11.63L38.07 12.60L40.80 12.60L40.80 6.16L38.07 6.16ZM46.75 6.16L45.75 7.38L44.79 6.16L41.64 6.16L44.18 9.30L41.50 12.60L44.65 12.60L45.75 11.21L46.89 12.60L49.90 12.60L47.26 9.30L49.76 6.16ZM55.62 8.93L56.73 6.58C56.38 6.16 55.86 5.95 55.17 5.95C54.39 5.95 53.75 6.30 53.26 7.01L53.26 6.16L50.60 6.16L50.60 12.60L53.26 12.60L53.26 9.66C53.26 9.22 53.37 8.91 53.59 8.74C53.80 8.56 54.12 8.47 54.54 8.47C55.00 8.47 55.36 8.62 55.62 8.93ZM58.49 8.29C59.15 7.96 59.85 7.80 60.62 7.80C60.96 7.80 61.21 7.87 61.38 8.03C61.54 8.18 61.63 8.39 61.63 8.65L61.63 8.97C61.20 8.73 60.62 8.61 59.89 8.61C59.15 8.61 58.49 8.79 57.93 9.13C57.36 9.48 57.08 10.03 57.08 10.78C57.08 11.41 57.28 11.90 57.69 12.24C58.10 12.57 58.71 12.74 59.50 12.74C60.55 12.74 61.26 12.41 61.63 11.75L61.63 12.60L64.22 12.60L64.22 7.98C64.22 7.32 63.91 6.81 63.30 6.47C62.69 6.12 61.89 5.95 60.90 5.95C59.72 5.95 58.65 6.14 57.67 6.52ZM59.82 10.58C59.82 10.39 59.90 10.24 60.05 10.13C60.21 10.02 60.41 9.97 60.65 9.97C61.03 9.97 61.35 10.02 61.61 10.14C61.55 10.74 61.17 11.05 60.48 11.05C60.04 11.05 59.82 10.89 59.82 10.58Z"></path></g><defs data-v-423bf9ae=""><linearGradient data-v-423bf9ae="" gradientTransform="rotate(25)" id="031f3115-e138-4851-aa25-d3f7a7e0c482" x1="0%" y1="0%" x2="100%" y2="0%"><stop data-v-423bf9ae="" offset="0%" style="stop-color: rgb(90, 90, 45); stop-opacity: 1;"></stop><stop data-v-423bf9ae="" offset="100%" style="stop-color: rgb(13, 227, 13); stop-opacity: 1;"></stop></linearGradient></defs><g data-v-423bf9ae="" id="75d30ad7-b09b-4225-8928-e25fa05c63ff" transform="matrix(1.3532694996066317,0,0,1.3532694996066317,-3.4080004059450886,-24.625794894359345)" stroke="none" fill="url(#031f3115-e138-4851-aa25-d3f7a7e0c482)"><path d="M33.3 67.4h-8.9c-1-2.4-3.4-4.1-6.1-4-3.4.1-6.3 3-6.4 6.4-.1 3.6 2.9 6.6 6.5 6.6 2.7 0 5-1.7 6-4h11.2l7.6-9h49.1c1.4 0 2.5-1.1 2.5-2.5s-1.1-2.5-2.5-2.5H41l-7.7 9zm-14.9 4c-.8 0-1.5-.7-1.5-1.5s.7-1.5 1.5-1.5 1.5.7 1.5 1.5-.6 1.5-1.5 1.5zM35.6 31.6H15.2c-1-2.4-3.4-4.1-6.1-4-3.4.1-6.3 3-6.4 6.4-.1 3.6 2.9 6.6 6.5 6.6 2.7 0 5-1.7 6-4h18.1l7.6 9h51.4c1.4 0 2.5-1.1 2.5-2.5s-1.1-2.5-2.5-2.5h-49l-7.7-9zm-26.4 4c-.8 0-1.5-.7-1.5-1.5s.7-1.5 1.5-1.5 1.5.7 1.5 1.5-.7 1.5-1.5 1.5z"></path><path d="M44.3 72.7c-1.3-.5-2.9-.6-4.5 0-2.1.8-3.7 2.6-4.1 4.8-.8 4.4 2.8 8.3 7.2 7.7 2.7-.3 4.9-2.4 5.5-5 .3-1.5.1-2.9-.5-4.1l2.8-3.7h41.5c1.4 0 2.5-1.1 2.5-2.5s-1.1-2.5-2.5-2.5h-44l-3.9 5.3zm-2.2 7.7c-.8 0-1.5-.7-1.5-1.5s.7-1.5 1.5-1.5 1.5.7 1.5 1.5-.7 1.5-1.5 1.5zM34.5 45.5c-3.6 0-6.6 3-6.5 6.6.1 3.4 2.9 6.3 6.4 6.4 2.8.1 5.1-1.6 6.1-4h51.8c1.4 0 2.5-1.1 2.5-2.5s-1.1-2.5-2.5-2.5H40.5c-1-2.4-3.3-4-6-4zm0 8c-.8 0-1.5-.7-1.5-1.5s.7-1.5 1.5-1.5 1.5.7 1.5 1.5-.7 1.5-1.5 1.5zM59.3 31.6l-2.8-3.7c.6-1.2.8-2.6.5-4.1-.6-2.6-2.8-4.7-5.5-5-4.4-.5-8.1 3.3-7.2 7.7.4 2.2 2 4.1 4.1 4.8 1.6.6 3.1.5 4.5 0l4.1 5.3h35.5c1.4 0 2.5-1.1 2.5-2.5s-1.1-2.5-2.5-2.5H59.3zM49 25.1c0-.8.7-1.5 1.5-1.5s1.5.7 1.5 1.5-.7 1.5-1.5 1.5c-.8.1-1.5-.6-1.5-1.5z"></path></g><!----></svg>