<svg xmlns="http://www.w3.org/2000/svg" xmlns:xlink="http://www.w3.org/1999/xlink" version="1.1" x="0px" y="0px" viewBox="0 0 100 100" style="enable-background:new 0 0 100 100;" xml:space="preserve"><g><path d="M33.3,67.4h-8.9c-1-2.4-3.4-4.1-6.1-4c-3.4,0.1-6.3,3-6.4,6.4c-0.1,3.6,2.9,6.6,6.5,6.6c2.7,0,5-1.7,6-4h11.2l7.6-9h49.1   c1.4,0,2.5-1.1,2.5-2.5v0c0-1.4-1.1-2.5-2.5-2.5H41L33.3,67.4z M18.4,71.4c-0.8,0-1.5-0.7-1.5-1.5s0.7-1.5,1.5-1.5s1.5,0.7,1.5,1.5   S19.3,71.4,18.4,71.4z"></path><path d="M35.6,31.6H15.2c-1-2.4-3.4-4.1-6.1-4c-3.4,0.1-6.3,3-6.4,6.4c-0.1,3.6,2.9,6.6,6.5,6.6c2.7,0,5-1.7,6-4h18.1l7.6,9h51.4   c1.4,0,2.5-1.1,2.5-2.5v0c0-1.4-1.1-2.5-2.5-2.5H43.3L35.6,31.6z M9.2,35.6c-0.8,0-1.5-0.7-1.5-1.5s0.7-1.5,1.5-1.5   s1.5,0.7,1.5,1.5S10,35.6,9.2,35.6z"></path><path d="M44.3,72.7c-1.3-0.5-2.9-0.6-4.5,0c-2.1,0.8-3.7,2.6-4.1,4.8c-0.8,4.4,2.8,8.3,7.2,7.7c2.7-0.3,4.9-2.4,5.5-5   c0.3-1.5,0.1-2.9-0.5-4.1l2.8-3.7h41.5c1.4,0,2.5-1.1,2.5-2.5l0,0c0-1.4-1.1-2.5-2.5-2.5h-44L44.3,72.7z M42.1,80.4   c-0.8,0-1.5-0.7-1.5-1.5s0.7-1.5,1.5-1.5s1.5,0.7,1.5,1.5S42.9,80.4,42.1,80.4z"></path><path d="M34.5,45.5c-3.6,0-6.6,3-6.5,6.6c0.1,3.4,2.9,6.3,6.4,6.4c2.8,0.1,5.1-1.6,6.1-4h51.8c1.4,0,2.5-1.1,2.5-2.5v0   c0-1.4-1.1-2.5-2.5-2.5H40.5C39.5,47.1,37.2,45.5,34.5,45.5z M34.5,53.5c-0.8,0-1.5-0.7-1.5-1.5s0.7-1.5,1.5-1.5S36,51.2,36,52   S35.3,53.5,34.5,53.5z"></path><path d="M59.3,31.6l-2.8-3.7c0.6-1.2,0.8-2.6,0.5-4.1c-0.6-2.6-2.8-4.7-5.5-5c-4.4-0.5-8.1,3.3-7.2,7.7c0.4,2.2,2,4.1,4.1,4.8   c1.6,0.6,3.1,0.5,4.5,0l4.1,5.3h35.5c1.4,0,2.5-1.1,2.5-2.5v0c0-1.4-1.1-2.5-2.5-2.5H59.3z M49,25.1c0-0.8,0.7-1.5,1.5-1.5   c0.8,0,1.5,0.7,1.5,1.5s-0.7,1.5-1.5,1.5C49.7,26.7,49,26,49,25.1z"></path></g></svg>