<?xml version="1.0" encoding="iso-8859-1"?><!-- Generator: Adobe Illustrator 19.0.0, SVG Export Plug-In . SVG Version: 6.00 Build 0)  --><svg xmlns="http://www.w3.org/2000/svg" xmlns:xlink="http://www.w3.org/1999/xlink" version="1.1" id="Layer_1" x="0px" y="0px" viewBox="0 0 512 512" style="enable-background:new 0 0 512 512;" xml:space="preserve">
<path style="fill:#E6EAEE;" d="M210.954,113.117C94.469,113.117,0,188.417,0,281.217c0,39.526,17.408,74.555,45.719,104.527  C57.124,397.818,62.82,415,62.82,432.928c0,20.39-8.328,38.874-21.727,52.283c32.963-5.181,60.972-25.201,77.018-52.992  c28.014,10.964,59.482,17.111,92.846,17.111c116.506,0,210.957-75.264,210.957-168.11  C421.914,188.417,327.46,113.117,210.954,113.117z"/>
<path style="fill:#CDD3DA;" d="M344.461,151.08c13.99,22.482,21.903,47.813,21.903,74.611c0,92.826-94.451,168.092-210.954,168.092  c-50.353,0-96.504-14.044-132.79-37.494c6.5,10.284,14.295,20.137,23.099,29.455C57.124,397.818,62.82,415,62.82,432.928  c0,20.39-8.328,38.874-21.727,52.283c32.963-5.181,60.972-25.201,77.018-52.992c28.014,10.965,59.482,17.111,92.846,17.111  c116.506,0,210.957-75.264,210.957-168.11C421.914,228.753,391.754,181.925,344.461,151.08z"/>
<g>
	<path style="fill:#AAB5BD;" d="M164.782,281.125c0,8.228-6.717,14.899-14.899,14.899c-8.264,0-14.909-6.671-14.909-14.899   c0-8.2,6.646-14.881,14.909-14.881C158.065,266.244,164.782,272.925,164.782,281.125z"/>
	<path style="fill:#AAB5BD;" d="M225.871,281.125c0,8.228-6.71,14.899-14.909,14.899c-8.21,0-14.92-6.671-14.92-14.899   c0-8.2,6.71-14.881,14.92-14.881C219.164,266.244,225.871,272.925,225.871,281.125z"/>
	<path style="fill:#AAB5BD;" d="M286.945,281.125c0,8.228-6.707,14.899-14.912,14.899c-8.187,0-14.897-6.671-14.897-14.899   c0-8.2,6.71-14.881,14.897-14.881C280.238,266.244,286.945,272.925,286.945,281.125z"/>
</g>
<polygon style="fill:#E64732;" points="512,181.262 261.517,181.262 221.028,80.255 "/>
<polygon style="fill:#FF7059;" points="512,181.262 261.517,181.262 315.617,26.789 "/>
<g>
</g>
<g>
</g>
<g>
</g>
<g>
</g>
<g>
</g>
<g>
</g>
<g>
</g>
<g>
</g>
<g>
</g>
<g>
</g>
<g>
</g>
<g>
</g>
<g>
</g>
<g>
</g>
<g>
</g>
</svg>