<svg data-v-423bf9ae="" xmlns="http://www.w3.org/2000/svg" viewBox="0 0 264.01228043528937 60" class="font"><!----><!----><!----><g data-v-423bf9ae="" id="0b4dfc1d-ad20-45cb-ad3c-81e650610e1c" fill="black" transform="matrix(6.1412484328310715,0,0,6.1412484328310715,-2.579323058933852,-25.97748051117329)"><path d="M1.54 11.12C1.40 10.98 1.20 10.88 0.98 10.88C0.77 10.88 0.56 10.98 0.42 11.12L0.42 7.21C0.42 6.90 0.67 6.65 0.98 6.65C1.29 6.65 1.54 6.90 1.54 7.21ZM4.83 11.12C4.69 10.98 4.48 10.89 4.27 10.88C4.05 10.89 3.85 10.98 3.71 11.12L3.71 7.21C3.71 6.90 3.96 6.65 4.27 6.65C4.58 6.65 4.83 6.90 4.83 7.21ZM8.11 11.12C7.97 10.98 7.76 10.88 7.55 10.88C7.32 10.88 7.13 10.98 6.99 11.12L6.99 7.21C6.99 6.90 7.24 6.65 7.55 6.65C7.85 6.65 8.11 6.90 8.11 7.21ZM3.54 12.32C3.64 12.74 3.84 13.10 4.10 13.41C3.71 13.78 3.19 14 2.63 14C1.41 14 0.42 12.96 0.42 11.69L0.42 11.63C0.45 11.34 0.69 11.12 0.98 11.12C1.27 11.12 1.51 11.34 1.54 11.63L1.54 11.69C1.54 12.33 2.03 12.88 2.63 12.88C3.01 12.88 3.35 12.66 3.54 12.32ZM8.11 11.69C8.11 11.93 8.06 12.17 8.01 12.38C7.73 13.31 6.89 13.99 5.91 14C4.69 14 3.70 12.96 3.70 11.69C3.70 11.59 3.72 11.51 3.75 11.44C3.85 11.26 4.03 11.13 4.26 11.13C4.48 11.13 4.68 11.26 4.76 11.44C4.80 11.51 4.82 11.59 4.82 11.69C4.82 12.01 4.94 12.31 5.15 12.54C5.35 12.75 5.63 12.88 5.91 12.88C6.19 12.88 6.45 12.75 6.65 12.54C6.86 12.31 6.99 12.01 6.99 11.69C6.99 11.59 7 11.51 7.04 11.44C7.14 11.26 7.32 11.13 7.55 11.13C7.77 11.13 7.95 11.26 8.05 11.44C8.08 11.51 8.11 11.59 8.11 11.69ZM13.36 8.96C13.36 9.03 13.34 9.09 13.33 9.14C13.26 9.37 13.03 9.52 12.80 9.52C12.49 9.52 12.24 9.27 12.24 8.96C12.24 8.93 12.24 8.90 12.22 8.88C12.21 8.58 12.10 8.32 11.90 8.11C11.69 7.90 11.42 7.77 11.14 7.77C10.86 7.77 10.60 7.90 10.40 8.11C10.21 8.32 10.09 8.58 10.07 8.88L10.07 8.96C10.07 9.27 9.81 9.52 9.51 9.52C9.25 9.52 9.04 9.37 8.97 9.14C8.96 9.09 8.95 9.03 8.95 8.96L8.95 8.88C8.95 8.78 8.96 8.69 8.97 8.60C9.14 7.50 10.05 6.65 11.14 6.65C12.25 6.65 13.16 7.50 13.33 8.60C13.34 8.69 13.34 8.78 13.36 8.88ZM13.36 11.91C13.36 12.53 13.12 13.08 12.68 13.45C12.28 13.80 11.73 14 11.14 14C9.94 14 8.95 12.96 8.95 11.69L8.95 9.53C9.00 9.58 9.06 9.63 9.11 9.66C9.23 9.73 9.37 9.76 9.51 9.76C9.73 9.76 9.93 9.67 10.07 9.53C10.12 9.48 10.16 9.42 10.21 9.35C10.25 9.45 10.32 9.55 10.40 9.63C10.60 9.84 10.86 9.97 11.14 9.97C11.42 9.97 11.69 9.84 11.90 9.63C11.98 9.55 12.04 9.45 12.10 9.35C12.24 9.60 12.49 9.76 12.80 9.76C12.94 9.76 13.06 9.73 13.19 9.66C12.85 10.50 12.07 11.09 11.14 11.09C10.75 11.09 10.39 10.98 10.07 10.79L10.07 11.69C10.07 12.01 10.18 12.32 10.40 12.54C10.60 12.75 10.86 12.88 11.14 12.88C11.47 12.88 11.75 12.78 11.94 12.61C12.14 12.45 12.24 12.21 12.24 11.91C12.24 11.61 12.49 11.35 12.80 11.35C13.10 11.35 13.36 11.61 13.36 11.91ZM15.32 6.72C14.83 6.97 14.43 7.39 14.20 7.91L14.20 4.79C14.20 4.48 14.45 4.23 14.76 4.23C15.06 4.23 15.32 4.48 15.32 4.79ZM14.20 9.00C14.20 8.76 14.24 8.53 14.29 8.32C14.57 7.38 15.41 6.71 16.38 6.69L16.39 6.69C17.61 6.69 18.61 7.73 18.61 9.00C18.61 9.10 18.58 9.18 18.55 9.25C18.45 9.44 18.26 9.56 18.05 9.56C17.82 9.56 17.63 9.44 17.54 9.25C17.50 9.18 17.49 9.10 17.49 9.00C17.49 8.68 17.36 8.39 17.15 8.15C16.94 7.94 16.67 7.81 16.39 7.81C16.11 7.81 15.85 7.94 15.65 8.15C15.43 8.39 15.32 8.68 15.32 9.00C15.32 9.10 15.30 9.18 15.26 9.25C15.16 9.44 14.98 9.56 14.76 9.56C14.53 9.56 14.35 9.44 14.25 9.25C14.22 9.18 14.20 9.10 14.20 9.00ZM18.61 11.69C18.61 12.96 17.61 14 16.39 14C15.19 14 14.20 12.96 14.20 11.69L14.20 9.58C14.34 9.72 14.53 9.81 14.76 9.81C14.98 9.81 15.18 9.72 15.32 9.58L15.32 11.69C15.32 12.01 15.43 12.32 15.65 12.54C15.85 12.75 16.11 12.88 16.39 12.88C16.67 12.88 16.94 12.75 17.15 12.54C17.36 12.32 17.49 12.01 17.49 11.69L17.49 9.58C17.63 9.72 17.82 9.81 18.05 9.81C18.26 9.81 18.45 9.72 18.61 9.58ZM20.57 11.12C20.43 10.98 20.23 10.89 20.01 10.89C19.80 10.89 19.59 10.98 19.45 11.12L19.45 4.79C19.45 4.48 19.70 4.23 20.01 4.23C20.31 4.23 20.57 4.48 20.57 4.79ZM20.01 11.13C20.31 11.13 20.57 11.38 20.57 11.69C20.57 12.01 20.69 12.32 20.90 12.54C21.10 12.77 21.36 12.88 21.64 12.88C21.95 12.88 22.25 12.74 22.46 12.47C22.65 12.24 23.00 12.21 23.24 12.40C23.49 12.60 23.52 12.95 23.32 13.19C22.90 13.71 22.30 14 21.64 14C20.44 14 19.45 12.96 19.45 11.69C19.45 11.38 19.70 11.13 20.01 11.13ZM25.20 11.12C25.06 10.98 24.86 10.89 24.64 10.89C24.42 10.89 24.22 10.98 24.08 11.12L24.08 7.21C24.08 6.90 24.33 6.65 24.64 6.65C24.95 6.65 25.20 6.90 25.20 7.21ZM28.49 11.12C28.34 10.98 28.14 10.89 27.93 10.89C27.71 10.89 27.51 10.98 27.37 11.12L27.37 7.21C27.37 6.90 27.62 6.65 27.93 6.65C28.24 6.65 28.49 6.90 28.49 7.21ZM26.28 14C25.07 14 24.08 12.96 24.08 11.69C24.08 11.38 24.33 11.13 24.64 11.13C24.95 11.13 25.20 11.38 25.20 11.69C25.20 12.01 25.31 12.32 25.54 12.54C25.73 12.77 26.00 12.88 26.28 12.88C26.56 12.88 26.82 12.77 27.03 12.54C27.24 12.32 27.37 12.01 27.37 11.69C27.37 11.38 27.62 11.13 27.93 11.13C28.24 11.13 28.49 11.38 28.49 11.69C28.49 12.96 27.50 14 26.28 14ZM30.45 7.80C30.31 7.66 30.11 7.56 29.89 7.56C29.67 7.56 29.47 7.66 29.33 7.80L29.33 7.21C29.33 6.90 29.58 6.65 29.89 6.65C30.20 6.65 30.45 6.90 30.45 7.21ZM33.74 7.80C33.59 7.66 33.39 7.56 33.18 7.56C32.96 7.56 32.76 7.66 32.62 7.80L32.62 7.21C32.62 6.90 32.87 6.65 33.18 6.65C33.49 6.65 33.74 6.90 33.74 7.21ZM33.74 8.36C33.74 8.76 33.64 9.13 33.47 9.45C33.36 9.67 33.21 9.88 33.04 10.05C32.75 10.35 32.37 10.56 31.95 10.64C31.82 10.67 31.68 10.68 31.53 10.68C31.39 10.68 31.25 10.67 31.11 10.64C30.70 10.56 30.32 10.35 30.03 10.05C29.85 9.87 29.71 9.67 29.60 9.45C29.43 9.13 29.33 8.76 29.33 8.36C29.33 8.05 29.58 7.80 29.89 7.80C30.20 7.80 30.45 8.05 30.45 8.36C30.45 8.69 30.56 8.99 30.79 9.23C30.88 9.32 31.00 9.41 31.11 9.46C31.25 9.52 31.39 9.56 31.53 9.56C31.68 9.56 31.82 9.52 31.95 9.46C32.07 9.41 32.19 9.32 32.28 9.23C32.49 8.99 32.62 8.69 32.62 8.36C32.62 8.05 32.87 7.80 33.18 7.80C33.49 7.80 33.74 8.05 33.74 8.36ZM29.86 10.22C30.14 10.50 30.48 10.70 30.84 10.81C30.83 10.84 30.80 10.85 30.79 10.88C30.56 11.10 30.45 11.41 30.45 11.73L30.45 13.44C30.45 13.75 30.20 14 29.89 14C29.58 14 29.33 13.75 29.33 13.44L29.33 11.73C29.33 11.16 29.53 10.63 29.86 10.22ZM33.74 13.44C33.74 13.75 33.49 14 33.18 14C32.87 14 32.62 13.75 32.62 13.44L32.62 11.73C32.62 11.41 32.49 11.10 32.28 10.88C32.27 10.85 32.24 10.84 32.21 10.81C32.59 10.70 32.93 10.50 33.21 10.22C33.53 10.63 33.74 11.16 33.74 11.73ZM38.46 7.48C38.04 6.96 37.44 6.66 36.78 6.66C36.36 6.66 35.95 6.79 35.62 7.01C35.52 6.86 35.34 6.75 35.14 6.75C34.83 6.75 34.58 7 34.58 7.31L34.58 8.97C34.58 9.28 34.83 9.53 35.14 9.53C35.45 9.53 35.70 9.28 35.70 8.97C35.70 8.65 35.83 8.34 36.04 8.12C36.23 7.90 36.50 7.78 36.78 7.78C37.09 7.78 37.38 7.92 37.59 8.19C37.79 8.43 38.14 8.46 38.37 8.26C38.63 8.06 38.65 7.71 38.46 7.48ZM35.14 9.77C34.92 9.77 34.72 9.69 34.58 9.53L34.58 13.44C34.58 13.75 34.83 14 35.14 14C35.45 14 35.70 13.75 35.70 13.44L35.70 9.53C35.56 9.69 35.36 9.77 35.14 9.77ZM41.22 6.65C40.61 6.65 40.08 6.85 39.68 7.20C39.24 7.57 39.00 8.12 39.00 8.74C39.00 9.04 39.26 9.30 39.56 9.30C39.87 9.30 40.12 9.04 40.12 8.74C40.12 8.44 40.22 8.20 40.42 8.04C40.61 7.87 40.89 7.77 41.22 7.77C41.50 7.77 41.76 7.90 41.96 8.11C42.17 8.34 42.29 8.64 42.29 8.96L42.29 9.87C41.97 9.67 41.61 9.56 41.22 9.56C40.29 9.56 39.51 10.15 39.17 10.99C39.30 10.92 39.42 10.89 39.56 10.89C39.87 10.89 40.12 11.05 40.26 11.30C40.32 11.20 40.38 11.10 40.46 11.02C40.66 10.81 40.94 10.68 41.22 10.68C41.50 10.68 41.76 10.81 41.96 11.02C42.04 11.10 42.10 11.20 42.15 11.30C42.20 11.23 42.24 11.17 42.29 11.12C42.43 10.98 42.63 10.89 42.85 10.89C42.99 10.89 43.13 10.92 43.25 10.99C43.30 11.02 43.36 11.06 43.41 11.12L43.41 8.96C43.41 7.69 42.42 6.65 41.22 6.65ZM42.85 11.13C42.55 11.13 42.29 11.38 42.29 11.69C42.29 12.01 42.17 12.32 41.96 12.54C41.75 12.77 41.48 12.88 41.20 12.88C40.92 12.88 40.66 12.77 40.46 12.54C40.24 12.32 40.12 12.01 40.12 11.69C40.12 11.38 39.87 11.13 39.56 11.13C39.26 11.13 39.00 11.38 39.00 11.69C39.00 12.96 40.00 14 41.20 14C42.42 14 43.41 12.96 43.41 11.69C43.41 11.38 43.16 11.13 42.85 11.13Z"></path></g><!----><!----></svg>