<svg data-v-423bf9ae="" xmlns="http://www.w3.org/2000/svg" viewBox="0 0 483 90" class="iconLeft"><!----><!----><!----><g data-v-423bf9ae="" id="7a826d67-85e4-4fbc-9659-610aba961ea1" fill="#36231D" transform="matrix(6.5934070079975555,0,0,6.5934070079975555,106.49364049748627,-1.5494531961242899)"><path d="M0.32 4.83L2.59 11.37L3.22 11.37C3.60 11.37 3.89 11.41 4.06 11.44L5.43 7.83L6.68 11.37L7.32 11.37C7.70 11.37 8.01 11.41 8.16 11.44L10.58 4.83L9.21 4.72C9.21 5.29 9.11 6.89 8.26 9.16L7.97 9.95L7.88 9.95L6.30 5.77L6.44 4.83L4.94 4.83C4.94 5.42 5.18 5.87 5.18 6.41C5.18 6.45 5.18 6.51 5.17 6.55L3.88 9.95L3.81 9.95L1.99 4.72ZM12.78 7.28C12.94 6.06 13.51 5.42 14.42 5.42C15.43 5.42 15.99 6.06 16.02 7.25ZM12.74 7.98L17.65 8.08L17.65 7.42C17.65 5.80 16.39 4.72 14.50 4.72C12.43 4.72 11.05 6.06 11.05 8.08C11.05 10.12 12.46 11.48 14.56 11.48C15.68 11.48 17.12 10.86 17.50 10.68L17.14 9.81L15.83 10.46C15.53 10.61 15.01 10.78 14.67 10.78C13.26 10.78 12.74 9.97 12.74 8.04ZM20.72 6.09L21.92 5.71C22.30 5.59 22.54 5.54 22.75 5.54C23.49 5.54 23.87 6.44 23.87 8.11C23.87 9.76 23.49 10.65 22.75 10.65C22.54 10.65 22.30 10.61 21.92 10.49L20.72 10.11ZM20.59 10.70L21.70 11.13C22.20 11.33 22.67 11.48 23.09 11.48C24.57 11.48 25.56 10.14 25.56 8.11C25.56 6.08 24.57 4.72 23.09 4.72C22.67 4.72 22.20 4.87 21.70 5.07L20.72 5.46L20.72 2.51L19.10 2.51L19.10 11.37L20.01 11.42C20.01 11.42 20.17 10.67 20.48 10.67C20.51 10.67 20.57 10.68 20.59 10.70ZM28.64 2.51L27.02 2.51L27.02 9.04C27.02 9.65 27.20 11.35 27.20 11.42C27.20 11.42 28.08 11.40 28.64 11.37ZM36.75 4.83L35.13 4.83L35.13 10.11L33.63 10.58C33.39 10.65 33.10 10.71 32.82 10.71C32.34 10.71 32.09 10.32 32.09 9.60L32.09 4.83L30.45 4.83L30.45 9.86C30.45 10.84 31.28 11.48 32.49 11.48C32.90 11.48 33.33 11.44 33.91 11.21L35.20 10.71L35.56 11.42L36.75 11.37ZM38.11 4.83L40.52 8.33L38.01 11.37L39.24 11.48C39.24 11.02 40.25 9.73 40.92 8.92L40.99 8.92L42.81 11.61L44.69 11.37L42.11 7.70L44.48 4.83L43.29 4.72C43.29 5.17 42.64 5.96 41.72 7.07L41.66 7.07L40.00 4.72ZM49.90 6.03L50.01 4.62C49 4.62 48.58 5.05 48.09 5.56L47.56 6.09L47.19 4.77L45.93 4.83L45.93 11.37L47.56 11.37L47.56 7L48.17 6.38C48.52 6.03 49 6.03 49.45 6.03ZM53.79 4.72C52.57 4.72 51.53 5.11 51.00 5.38L51.32 6.24L52.54 5.70C52.89 5.54 53.34 5.42 53.79 5.42C54.60 5.42 55.05 5.85 55.05 6.65L55.05 7.63L52.98 7.63C51.52 7.63 50.44 8.33 50.44 9.55C50.44 10.67 51.45 11.48 52.85 11.48C53.10 11.48 53.45 11.41 53.97 11.19L55.19 10.65L55.54 11.44L56.98 11.27L56.90 11.02C56.81 10.74 56.69 10.16 56.69 9.79L56.69 6.61C56.69 5.38 55.66 4.72 53.79 4.72ZM55.05 10.21L53.58 10.61C53.42 10.65 53.17 10.70 53.06 10.70C52.42 10.70 52.07 10.30 52.07 9.59C52.07 8.78 52.54 8.33 53.38 8.33L55.05 8.33Z"></path></g><defs data-v-423bf9ae=""><linearGradient data-v-423bf9ae="" gradientTransform="rotate(25)" id="c6728795-3fd5-4bd0-97e0-fe93cc45df49" x1="0%" y1="0%" x2="100%" y2="0%"><stop data-v-423bf9ae="" offset="0%" style="stop-color: rgb(235, 110, 0); stop-opacity: 1;"></stop><stop data-v-423bf9ae="" offset="100%" style="stop-color: rgb(243, 188, 230); stop-opacity: 1;"></stop></linearGradient></defs><g data-v-423bf9ae="" id="40972a04-656d-49c7-882e-593bd47b6675" transform="matrix(1.258573120378965,0,0,1.258573120378965,-18.12865247400135,-17.671738506656943)" stroke="none" fill="url(#c6728795-3fd5-4bd0-97e0-fe93cc45df49)"><path d="M46 36.1H35.5c-.6-2.9-3.2-5.1-6.3-5.1-3.5 0-6.4 2.9-6.4 6.4s2.9 6.4 6.4 6.4c3 0 5.5-2.1 6.2-4.9h8.7c.3 0 .5.2.5.5v38.9c0 .7.5 1.4 1.3 1.4.8.1 1.5-.6 1.5-1.4V37.5c0-.7-.6-1.4-1.4-1.4zM29.2 41c-2 0-3.6-1.6-3.6-3.6s1.6-3.6 3.6-3.6 3.6 1.6 3.6 3.6-1.6 3.6-3.6 3.6zM60.4 20.6c0-3.5-2.9-6.4-6.4-6.4-3.5 0-6.4 2.9-6.4 6.4 0 3 2.1 5.6 5 6.2v54.5c0 .8.7 1.5 1.5 1.4.7-.1 1.3-.7 1.3-1.4V26.8c2.9-.6 5-3.2 5-6.2zM54 24.2c-2 0-3.6-1.6-3.6-3.6S52 17 54 17s3.6 1.6 3.6 3.6-1.6 3.6-3.6 3.6zM60.6 43.5v40.8c0 .8.7 1.5 1.5 1.4.7-.1 1.3-.7 1.3-1.4V45.5c0-.3.2-.5.5-.5h8.7c.7 2.8 3.2 4.9 6.2 4.9 3.5 0 6.4-2.9 6.4-6.4S82.3 37 78.8 37c-3.1 0-5.7 2.2-6.3 5.1H62c-.7 0-1.4.7-1.4 1.4zm14.6-.1c0-2 1.6-3.6 3.6-3.6s3.6 1.6 3.6 3.6-1.6 3.6-3.6 3.6-3.6-1.6-3.6-3.6z"></path><path d="M38 51.1H27.5c-.6-2.9-3.2-5.1-6.3-5.1-3.5 0-6.4 2.9-6.4 6.4s2.9 6.4 6.4 6.4c3 0 5.5-2.1 6.2-4.9h8.7c.3 0 .5.2.5.5v29.9c0 .7.5 1.4 1.3 1.4.8.1 1.5-.6 1.5-1.4V52.5c0-.8-.7-1.4-1.4-1.4zM21.2 56c-2 0-3.6-1.6-3.6-3.6s1.6-3.6 3.6-3.6 3.6 1.6 3.6 3.6-1.6 3.6-3.6 3.6z"></path></g><!----></svg>