<svg xmlns="http://www.w3.org/2000/svg" viewBox="0 0 100 80" fill="none" stroke="#002333">
    <path d="M63.8 51.2V40.4C63.8 39 62.8 37.9 61.5 37.9H9.39998C8.19998 37.9 7.09998 39 7.09998 40.4V70.2C7.09998 71.6 8.09998 72.7 9.39998 72.7H61.6C62.8 72.7 63.8 71.6 63.8 70.3V51.2V51.2Z" stroke-width="2" stroke-miterlimit="10" stroke-linecap="round" />
    <path d="M24.7 62.5H13.3C12.4 62.5 11.8 61.8 11.8 61V44.5C11.8 43.6 12.5 43 13.3 43H24.7C25.6 43 26.2 43.7 26.2 44.5V61C26.3 61.8 25.6 62.5 24.7 62.5Z" stroke-width="2" stroke-miterlimit="10" stroke-linecap="round" />
    <path d="M81.6 39.9L87.5 48C88.1 48.8 87.5 50 86.5 50H64.5" stroke-width="2" stroke-miterlimit="10" stroke-linecap="round" />
    <path d="M55.3 37.2001L48.5 27.8C47.9 27 48.5 25.8 49.5 25.8H70.7C71.1 25.8 71.5 26 71.7 26.3L79.1 36.3" stroke-width="2" stroke-miterlimit="10" stroke-linecap="round" />
    <path d="M54.2 72.8L51.6 62.4C51.1 60.9 49.7 59.8 48.1 59.8H46.7C39.9 59.8 35 55.8 35 52.4C35 49.4 37.4 47 40.4 47C43.4 47 45.8 49.4 45.8 52.4C45.8 56.6 41 59.8 34.2 59.8H33C31.3 59.8 29.8 61 29.4 62.6L27.9 72.7" stroke-width="2" stroke-miterlimit="10" stroke-linecap="round" />
    <path d="M34.4 67.6L33.5 72.8" stroke-width="2" stroke-miterlimit="10" stroke-linecap="round" />
    <path d="M47.3 67.6L48.6 72.8" stroke-width="2" stroke-miterlimit="10" stroke-linecap="round" />
    <path d="M63.8 54.9H92C93.2 54.9 94.2 53.8 94.2 52.5V33.3V22.5C94.2 21.1 93.2 20 91.9 20H39.7C38.5 20 37.4 21.1 37.4 22.5V37.4" stroke-width="2" stroke-miterlimit="10" stroke-linecap="round" />
    <path d="M55.3 20V8.60005C55.3 7.60005 54.6 6.80005 53.7 6.80005H17.2C16.3 6.80005 15.6 7.60005 15.6 8.60005V29.5C15.6 30.5 16.3 31.3 17.2 31.3H37.5" stroke-width="2" stroke-miterlimit="10" stroke-linecap="round" />
    <path d="M86.5 25.9L87.4 26.4C87.9 26.7 88.1 27.3 87.8 27.8L79.9 42.2L77 44.8C76.8 44.9 76.5 44.8 76.5 44.6L77.2 40.7L85.1 26.3C85.4 25.8 86 25.6 86.5 25.9Z" stroke-width="2" stroke-miterlimit="10" stroke-linecap="round" />
    <path d="M87 29.2001L84.3 27.8" stroke-width="2" stroke-miterlimit="10" stroke-linecap="round" />
    <path d="M79.9 42.2C79.9 42.2 79.8 41.1 79 40.7C78.2 40.3 77.2 40.8 77.2 40.8" stroke-width="2" stroke-miterlimit="10" stroke-linecap="round" />
    <path d="M24.1 16.2V21.8C24.1 22.5 24.9 22.9 25.4 22.5L29.4 19.7C29.9 19.4 29.9 18.6 29.4 18.3L25.4 15.5C24.9 15.1 24.1 15.5 24.1 16.2Z" stroke-width="2" stroke-miterlimit="10" stroke-linecap="round" />
    <path d="M37.5 23.6H31.1C30.5 23.6 29.9 23.1 29.9 22.4V15.5C29.9 14.9 30.4 14.3 31.1 14.3H43C43.6 14.3 44.2 14.8 44.2 15.5V20" stroke-width="2" stroke-miterlimit="10" stroke-linecap="round" />
</svg>